<?xml version="1.0" encoding="UTF-8" standalone="no"?>
<svg
   xmlns:dc="http://purl.org/dc/elements/1.1/"
   xmlns:cc="http://creativecommons.org/ns#"
   xmlns:rdf="http://www.w3.org/1999/02/22-rdf-syntax-ns#"
   xmlns:svg="http://www.w3.org/2000/svg"
   xmlns="http://www.w3.org/2000/svg"
   width="70mm"
   height="70mm"
   viewBox="0 0 70 70"
   version="1.1"
   id="svg8">
  <defs
     id="defs2" />
  <g
     id="layer1">
    <g
       id="g948"
       transform="matrix(0.26458333,0,0,0.26458333,0.14964339,0.23329303)"
       style="fill:#ffffff;fill-opacity:1">
      <g
         id="g891"
         style="fill:#ffffff;fill-opacity:1">
	<path
   d="m 245.63,103.39 h -9.91 c -2.486,-9.371 -6.197,-18.242 -10.955,-26.432 l 7.015,-7.015 c 6.546,-6.546 6.546,-17.159 0,-23.705 L 216.159,30.617 c -6.546,-6.546 -17.159,-6.546 -23.705,0 l -7.015,7.015 c -8.19,-4.758 -17.061,-8.468 -26.432,-10.955 V 16.763 C 159.007,7.505 151.502,0 142.244,0 H 120.153 C 110.895,0 103.39,7.505 103.39,16.763 v 9.914 C 94.02,29.163 85.148,32.874 76.959,37.631 L 69.943,30.616 C 63.397,24.07 52.784,24.07 46.238,30.617 l -15.62,15.621 c -6.546,6.546 -6.546,17.159 0,23.705 l 7.014,7.014 c -4.758,8.19 -8.469,17.062 -10.955,26.433 h -9.914 c -9.257,0 -16.762,7.505 -16.762,16.763 v 22.09 c 0,9.258 7.505,16.763 16.762,16.763 h 9.914 c 2.487,9.371 6.198,18.243 10.956,26.433 l -7.015,7.015 c -6.546,6.546 -6.546,17.159 0,23.705 l 15.621,15.621 c 6.546,6.546 17.159,6.546 23.705,0 l 7.016,-7.016 c 8.189,4.758 17.061,8.469 26.431,10.955 v 9.913 c 0,9.258 7.505,16.763 16.763,16.763 h 22.091 c 9.258,0 16.763,-7.505 16.763,-16.763 v -9.913 c 9.371,-2.487 18.242,-6.198 26.432,-10.956 l 7.016,7.017 c 6.546,6.546 17.159,6.546 23.705,0 l 15.621,-15.621 c 3.145,-3.144 4.91,-7.407 4.91,-11.853 0,-4.446 -1.766,-8.709 -4.91,-11.853 l -7.016,-7.016 c 4.758,-8.189 8.468,-17.062 10.955,-26.432 h 9.91 c 9.258,0 16.763,-7.505 16.763,-16.763 v -22.09 c -0.001,-9.257 -7.506,-16.762 -16.764,-16.762 z m -114.432,87.804 c -33.083,0 -59.998,-26.915 -59.998,-59.997 0,-33.083 26.915,-59.998 59.998,-59.998 33.083,0 59.998,26.915 59.998,59.998 0,33.082 -26.915,59.997 -59.998,59.997 z"
   id="path887"
   style="fill:#ffffff;fill-opacity:1" />

	<path
   d="m 131.198,101.199 c -16.541,0 -29.998,13.457 -29.998,29.998 0,16.54 13.457,29.997 29.998,29.997 16.541,0 29.998,-13.457 29.998,-29.997 0,-16.541 -13.457,-29.998 -29.998,-29.998 z"
   id="path889"
   style="fill:#ffffff;fill-opacity:1" />

</g>
      <g
         id="g893"
         style="fill:#ffffff;fill-opacity:1">
</g>
      <g
         id="g895"
         style="fill:#ffffff;fill-opacity:1">
</g>
      <g
         id="g897"
         style="fill:#ffffff;fill-opacity:1">
</g>
      <g
         id="g899"
         style="fill:#ffffff;fill-opacity:1">
</g>
      <g
         id="g901"
         style="fill:#ffffff;fill-opacity:1">
</g>
      <g
         id="g903"
         style="fill:#ffffff;fill-opacity:1">
</g>
      <g
         id="g905"
         style="fill:#ffffff;fill-opacity:1">
</g>
      <g
         id="g907"
         style="fill:#ffffff;fill-opacity:1">
</g>
      <g
         id="g909"
         style="fill:#ffffff;fill-opacity:1">
</g>
      <g
         id="g911"
         style="fill:#ffffff;fill-opacity:1">
</g>
      <g
         id="g913"
         style="fill:#ffffff;fill-opacity:1">
</g>
      <g
         id="g915"
         style="fill:#ffffff;fill-opacity:1">
</g>
      <g
         id="g917"
         style="fill:#ffffff;fill-opacity:1">
</g>
      <g
         id="g919"
         style="fill:#ffffff;fill-opacity:1">
</g>
      <g
         id="g921"
         style="fill:#ffffff;fill-opacity:1">
</g>
    </g>
  </g>
  <metadata>
    <rdf:RDF>
      <cc:Work
         rdf:about="">
        <dc:title></dc:title>
      </cc:Work>
    </rdf:RDF>
  </metadata>
</svg>
